<svg width="27" height="27" viewBox="0 0 27 27" fill="none" xmlns="http://www.w3.org/2000/svg">
<path d="M5.51512 9.65771C5.70767 9.25839 5.92994 8.8741 6.18007 8.50809L6.13399 5.77098C6.1319 5.64532 6.15781 5.52078 6.20984 5.40639C6.26186 5.292 6.33871 5.19062 6.43479 5.10962C7.42274 4.27615 8.55036 3.62405 9.76553 3.18349C9.88342 3.14104 10.0093 3.12537 10.134 3.13762C10.2587 3.14987 10.3791 3.18974 10.4865 3.25433L12.8376 4.66508L12.8352 4.66363C13.2773 4.63071 13.7212 4.63106 14.1633 4.66468L16.5107 3.25622C16.6184 3.19158 16.7392 3.15175 16.8643 3.13961C16.9894 3.12747 17.1156 3.14333 17.2338 3.18604C18.4496 3.62489 19.5781 4.27539 20.5673 5.10747C20.663 5.18834 20.7395 5.28951 20.7912 5.40363C20.8429 5.51775 20.8686 5.64196 20.8664 5.76724L20.8202 8.50879L20.8203 8.50596C21.0698 8.87237 21.2915 9.257 21.4834 9.65663L23.8768 10.9853C23.9867 11.0463 24.0816 11.131 24.1547 11.2333C24.2277 11.3355 24.2771 11.4528 24.2992 11.5765C24.5268 12.8476 24.5279 14.1489 24.3026 15.4204C24.2806 15.5443 24.2312 15.6619 24.1581 15.7644C24.085 15.8669 23.99 15.9519 23.8799 16.013L21.4828 17.3438L21.4852 17.3424C21.2927 17.7417 21.0704 18.126 20.8203 18.492L20.8664 21.2291C20.8685 21.3548 20.8425 21.4793 20.7905 21.5937C20.7385 21.7081 20.6616 21.8095 20.5656 21.8905C19.5776 22.724 18.45 23.3761 17.2348 23.8166C17.1169 23.8591 16.9911 23.8747 16.8664 23.8625C16.7417 23.8502 16.6213 23.8104 16.5139 23.7458L14.1627 22.335L14.1651 22.3365C13.723 22.3694 13.2791 22.369 12.8371 22.3354L10.4897 23.7439C10.3819 23.8085 10.2611 23.8484 10.136 23.8605C10.011 23.8726 9.88474 23.8568 9.76655 23.8141C8.55076 23.3752 7.42222 22.7247 6.4331 21.8926C6.33739 21.8118 6.26089 21.7106 6.20915 21.5965C6.15741 21.4824 6.13174 21.3582 6.13399 21.2329L6.18014 18.4913L6.18009 18.4941C5.93054 18.1277 5.70887 17.7431 5.51696 17.3435L3.12352 16.0148C3.01365 15.9538 2.91875 15.8691 2.8457 15.7668C2.77264 15.6646 2.72327 15.5473 2.70117 15.4236C2.47355 14.1525 2.47241 12.8512 2.6978 11.5797C2.71979 11.4557 2.76913 11.3382 2.84224 11.2357C2.91535 11.1332 3.01038 11.0482 3.12044 10.9871L5.5176 9.65634L5.51512 9.65771Z" fill="white" stroke="white" stroke-width="1.6875" stroke-linecap="round" stroke-linejoin="round"/>
<path d="M13.5 18.5625C16.2959 18.5625 18.5625 16.2959 18.5625 13.5C18.5625 10.7041 16.2959 8.4375 13.5 8.4375C10.7041 8.4375 8.4375 10.7041 8.4375 13.5C8.4375 16.2959 10.7041 18.5625 13.5 18.5625Z" fill="#9500F6"/>
</svg>
